<svg xmlns="http://www.w3.org/2000/svg" width="282.843" height="282.843" viewBox="0 0 282.843 282.843">
  <path id="Icon_awesome-rocket" data-name="Icon awesome-rocket" d="M197.32,7.461A6.208,6.208,0,0,0,192.553,2.7C179.971,0,170.129,0,160.321,0,120,0,95.812,21.562,77.764,50H37.05A18.756,18.756,0,0,0,20.3,60.347L.99,98.94a9.375,9.375,0,0,0,8.4,13.558H49.932l-8.78,8.777a12.5,12.5,0,0,0,0,17.676l19.888,19.886a12.506,12.506,0,0,0,17.684,0l8.78-8.777v40.562a9.377,9.377,0,0,0,13.558,8.394l38.565-19.293a18.714,18.714,0,0,0,10.354-16.758V122.182C178.346,104.1,200,79.839,200,39.726c.039-9.844.039-19.687-2.676-32.265Zm-47.3,58.163A15.625,15.625,0,1,1,165.651,50,15.627,15.627,0,0,1,150.022,65.624Z" transform="translate(141.418 -0.003) rotate(45)" fill="#fff"/>
</svg>
