<svg xmlns="http://www.w3.org/2000/svg" xmlns:xlink="http://www.w3.org/1999/xlink" width="774.379" height="106" viewBox="0 0 774.379 106">
  <defs>
    <filter id="The_sky_is_the_limit" x="0" y="0" width="736" height="106" filterUnits="userSpaceOnUse">
      <feOffset dx="2" dy="2" input="SourceAlpha"/>
      <feGaussianBlur stdDeviation="3" result="blur"/>
      <feFlood flood-opacity="0.161"/>
      <feComposite operator="in" in2="blur"/>
      <feComposite in="SourceGraphic"/>
    </filter>
    <filter id="Icon_awesome-rocket" x="710.926" y="33.423" width="63.453" height="63.459" filterUnits="userSpaceOnUse">
      <feOffset dx="2" dy="2" input="SourceAlpha"/>
      <feGaussianBlur stdDeviation="3" result="blur-2"/>
      <feFlood flood-opacity="0.161"/>
      <feComposite operator="in" in2="blur-2"/>
      <feComposite in="SourceGraphic"/>
    </filter>
  </defs>
  <g id="Group_1" data-name="Group 1" transform="translate(-150 -277)">
    <g transform="matrix(1, 0, 0, 1, 150, 277)" filter="url(#The_sky_is_the_limit)">
      <text id="The_sky_is_the_limit-2" data-name="The sky is the limit" transform="translate(8 77)" fill="#fff" font-size="72" font-family="MontserratAlternates-Bold, Montserrat Alternates" font-weight="700"><tspan x="0" y="0">The sky is the limit</tspan></text>
    </g>
    <g transform="matrix(1, 0, 0, 1, 150, 277)" filter="url(#Icon_awesome-rocket)">
      <path id="Icon_awesome-rocket-2" data-name="Icon awesome-rocket" d="M34.988,1.323a1.1,1.1,0,0,0-.845-.845A25.141,25.141,0,0,0,28.428,0C21.279,0,16.991,3.824,13.791,8.867H6.572A3.325,3.325,0,0,0,3.6,10.7L.179,17.547a1.663,1.663,0,0,0,1.489,2.4H8.856L7.3,21.508a2.217,2.217,0,0,0,0,3.135l3.526,3.527a2.217,2.217,0,0,0,3.135,0l1.557-1.557v7.194a1.663,1.663,0,0,0,2.4,1.489l6.838-3.422A3.319,3.319,0,0,0,26.6,28.9V21.669c5.029-3.208,8.867-7.51,8.867-14.624a24.574,24.574,0,0,0-.475-5.722ZM26.6,11.638a2.771,2.771,0,1,1,2.771-2.771A2.771,2.771,0,0,1,26.6,11.638Z" transform="translate(730.05 40.42) rotate(20)" fill="#fff"/>
    </g>
  </g>
</svg>
