<svg xmlns="http://www.w3.org/2000/svg" width="287.086" height="287.086" viewBox="0 0 287.086 287.086">
  <path id="Icon_awesome-rocket" data-name="Icon awesome-rocket" d="M160.321-1.5c9.739,0,19.809,0,32.546,2.729a7.72,7.72,0,0,1,5.919,5.917c2.788,12.913,2.748,22.914,2.71,32.586a103.278,103.278,0,0,1-1,14.524,89.513,89.513,0,0,1-2.889,13.166,83.841,83.841,0,0,1-4.6,11.9,85.252,85.252,0,0,1-6.133,10.729,93.524,93.524,0,0,1-7.474,9.663,109.2,109.2,0,0,1-8.627,8.708A147.149,147.149,0,0,1,151.483,123v39.964a20.214,20.214,0,0,1-11.184,18.1l-38.564,19.292A10.877,10.877,0,0,1,86,190.622V153.681L79.786,159.9a14.006,14.006,0,0,1-19.806,0L40.092,140.012a14,14,0,0,1,0-19.8L46.31,114H9.386A10.875,10.875,0,0,1-.353,98.27L18.958,59.676A20.256,20.256,0,0,1,37.049,48.5H76.942A146.188,146.188,0,0,1,91.494,29.185a108.291,108.291,0,0,1,8.7-8.627,92.853,92.853,0,0,1,9.661-7.468,84.912,84.912,0,0,1,10.739-6.122,83.9,83.9,0,0,1,11.924-4.591A90.076,90.076,0,0,1,145.727-.5,104.5,104.5,0,0,1,160.321-1.5Zm-63.438,200a7.92,7.92,0,0,0,3.512-.826l38.563-19.291a17.118,17.118,0,0,0,9.525-15.415V121.359l.694-.442c33.648-21.456,49.32-47.255,49.32-81.191V39.72c.038-9.511.077-19.346-2.643-31.943a4.716,4.716,0,0,0-3.616-3.616C179.812,1.5,169.9,1.5,160.321,1.5c-34.112,0-59.943,15.666-81.291,49.3l-.442.7H37.05a17.165,17.165,0,0,0-15.41,9.52L2.331,99.611A7.875,7.875,0,0,0,9.382,111H53.554L42.213,122.336a11,11,0,0,0,0,15.554L62.1,157.777a11.006,11.006,0,0,0,15.563,0L89,146.44v44.182a7.877,7.877,0,0,0,7.878,7.878ZM150.022,32.875a17.082,17.082,0,1,1-6.668,1.346A17.027,17.027,0,0,1,150.022,32.875Zm0,31.25A14.125,14.125,0,1,0,135.893,50,14.143,14.143,0,0,0,150.022,64.124Z" transform="translate(143.54 2.118) rotate(45)" fill="#fff"/>
</svg>
