<svg xmlns="http://www.w3.org/2000/svg" width="759.733" height="73.208" viewBox="0 0 759.733 73.208">
  <g id="Group_1" data-name="Group 1" transform="translate(-155.928 -296.336)">
    <path id="The_sky_is_the_limit" data-name="The sky is the limit" d="M327.6-57.664a8.589,8.589,0,0,1,5.72,1.978,6.663,6.663,0,0,1,2.264,5.07,7.273,7.273,0,0,1-2.241,5.372,8.3,8.3,0,0,1-5.743,2.108,8.4,8.4,0,0,1-5.735-2.073,6.961,6.961,0,0,1-2.249-5.191,6.961,6.961,0,0,1,2.249-5.191A8.4,8.4,0,0,1,327.6-57.664Zm0,12.528a6.229,6.229,0,0,0,4.373-1.564,5.225,5.225,0,0,0,1.611-3.916c0-2.972-2.461-5.048-5.984-5.048a6.416,6.416,0,0,0-4.381,1.545,4.983,4.983,0,0,0-1.6,3.719,4.983,4.983,0,0,0,1.6,3.719A6.416,6.416,0,0,0,327.6-45.136ZM578.808-57.664a8.589,8.589,0,0,1,5.72,1.978,6.663,6.663,0,0,1,2.264,5.07,7.273,7.273,0,0,1-2.241,5.372,8.3,8.3,0,0,1-5.743,2.108,8.4,8.4,0,0,1-5.735-2.073,6.961,6.961,0,0,1-2.249-5.191,6.961,6.961,0,0,1,2.249-5.191A8.4,8.4,0,0,1,578.808-57.664Zm0,12.528a6.229,6.229,0,0,0,4.373-1.564,5.225,5.225,0,0,0,1.611-3.916c0-2.972-2.461-5.048-5.984-5.048a6.416,6.416,0,0,0-4.381,1.545,4.983,4.983,0,0,0-1.6,3.719,4.983,4.983,0,0,0,1.6,3.719A6.416,6.416,0,0,0,578.808-45.136Zm97.2-12.528a8.589,8.589,0,0,1,5.72,1.978,6.663,6.663,0,0,1,2.264,5.07,7.273,7.273,0,0,1-2.241,5.372,8.3,8.3,0,0,1-5.743,2.108,8.4,8.4,0,0,1-5.735-2.073,6.961,6.961,0,0,1-2.249-5.191,6.961,6.961,0,0,1,2.249-5.191A8.4,8.4,0,0,1,676.008-57.664Zm0,12.528a6.229,6.229,0,0,0,4.373-1.564,5.225,5.225,0,0,0,1.611-3.916c0-2.972-2.461-5.048-5.984-5.048a6.416,6.416,0,0,0-4.381,1.545,4.983,4.983,0,0,0-1.6,3.719,4.983,4.983,0,0,0,1.6,3.719A6.416,6.416,0,0,0,676.008-45.136ZM50.12-54.424H63.352v17.541a16.447,16.447,0,0,1,4.078-2.2,20.676,20.676,0,0,1,7.234-1.233c4.993,0,9.2,1.53,12.156,4.425a15.194,15.194,0,0,1,3.616,5.708,23.292,23.292,0,0,1,1.284,8V1H78.488V-20.448c0-5.48-2.24-8.144-6.848-8.144-5.345,0-8.288,3.353-8.288,9.44V1H50.12Zm11.232,2H52.12V-1h9.232V-19.152c0-3.69.975-6.579,2.9-8.585a9.926,9.926,0,0,1,7.391-2.855,8.334,8.334,0,0,1,6.533,2.557c1.536,1.722,2.315,4.274,2.315,7.587V-1H89.72V-22.176c0-10.255-5.488-16.136-15.056-16.136A18.686,18.686,0,0,0,68.128-37.2,14.005,14.005,0,0,0,63.059-34L61.352-32.29Zm142.992-2h13.232v28.915l15.018-14.227h16.175L231.586-22.247,249.884,1H233.738L221.891-13.7l-4.315,4.258V1H204.344Zm11.232,2h-9.232V-1h9.232v-9.282l6.485-6.4L234.694-1h11.07L228.926-22.393,244-37.736H233.39L215.576-20.859Zm215.352-2H444.16v17.541a16.447,16.447,0,0,1,4.078-2.2,20.676,20.676,0,0,1,7.234-1.233c4.993,0,9.2,1.53,12.156,4.425a15.194,15.194,0,0,1,3.616,5.708,23.293,23.293,0,0,1,1.284,8V1H459.3V-20.448c0-5.48-2.24-8.144-6.848-8.144-5.345,0-8.288,3.353-8.288,9.44V1H430.928Zm11.232,2h-9.232V-1h9.232V-19.152c0-3.69.975-6.579,2.9-8.585a9.926,9.926,0,0,1,7.391-2.855,8.334,8.334,0,0,1,6.533,2.557c1.536,1.722,2.315,4.274,2.315,7.587V-1h9.232V-22.176c0-10.255-5.488-16.136-15.056-16.136a18.686,18.686,0,0,0-6.536,1.107A14.005,14.005,0,0,0,443.867-34L442.16-32.29Zm104.76-2h13.232v40.96a4.392,4.392,0,0,0,.977,3.11,3.761,3.761,0,0,0,2.847,1,6.429,6.429,0,0,0,2.682-.594l1.392-.773L568.69.347l-.726.242a19.4,19.4,0,0,1-6.148.987,19.22,19.22,0,0,1-6.168-.931,12.73,12.73,0,0,1-4.736-2.8,12.089,12.089,0,0,1-2.982-4.572,17.341,17.341,0,0,1-1.01-6.088Zm11.232,2H548.92v39.608c0,7.991,4.58,12.392,12.9,12.392a17.486,17.486,0,0,0,4.788-.66l-.38-6.576a8.817,8.817,0,0,1-2.248.308,5.663,5.663,0,0,1-4.3-1.626,6.288,6.288,0,0,1-1.525-4.486ZM22.9-52.264a50.585,50.585,0,0,1,12.726,1.6,43.449,43.449,0,0,1,11.551,4.81l.761.46L43.148-34.866l-.956-.558A36.531,36.531,0,0,0,29.8-39.942V1H16.136V-39.94a37.677,37.677,0,0,0-12.47,4.519l-.953.547L-2.072-45.4l.767-.459A47.091,47.091,0,0,1,22.9-52.264Zm22.477,7.669A41.761,41.761,0,0,0,35.118-48.73,48.581,48.581,0,0,0,22.9-50.264a45.31,45.31,0,0,0-22.4,5.673l3.137,6.9A39.627,39.627,0,0,1,16.993-42.1l1.143-.166V-1H27.8V-42.265l1.141.163a38.571,38.571,0,0,1,13.3,4.406ZM401.048-48.3H414.28v9.432h9.576v10.64H414.28v14.768c0,2.729,1.262,4.112,3.752,4.112a6.906,6.906,0,0,0,4.023-1.251l1.064-.769L426.8-1.506l-.62.446a16.949,16.949,0,0,1-9.656,2.636c-4.9,0-8.725-1.266-11.378-3.764-2.717-2.558-4.094-6.3-4.094-11.132Zm11.232,2h-9.232V-13.32c0,4.255,1.166,7.511,3.466,9.676,2.269,2.137,5.636,3.22,10.006,3.22a15.766,15.766,0,0,0,7.856-1.847l-2.252-6.041a9.106,9.106,0,0,1-4.092.96c-3.6,0-5.752-2.285-5.752-6.112V-30.232h9.576v-6.64H412.28Zm278.568-2H704.08v9.432h9.576v10.64H704.08v14.768c0,2.729,1.262,4.112,3.752,4.112a6.906,6.906,0,0,0,4.022-1.251l1.064-.769L716.6-1.506l-.62.446a16.95,16.95,0,0,1-9.656,2.636c-4.9,0-8.725-1.266-11.377-3.764-2.717-2.558-4.094-6.3-4.094-11.132Zm11.232,2h-9.232V-13.32c0,4.255,1.166,7.511,3.465,9.676,2.269,2.137,5.636,3.22,10.006,3.22a15.766,15.766,0,0,0,7.856-1.847l-2.252-6.041a9.106,9.106,0,0,1-4.092.96c-3.6,0-5.752-2.285-5.752-6.112V-30.232h9.576v-6.64H702.08ZM119.16-40.312A21.583,21.583,0,0,1,133.923-34.9a18.717,18.717,0,0,1,4.554,6.5,22.421,22.421,0,0,1,1.7,8.669l0,.83-28.155,5.447a7.741,7.741,0,0,0,2.858,2.709,12.157,12.157,0,0,0,5.932,1.324,13.6,13.6,0,0,0,5.035-.858,12.332,12.332,0,0,0,4-2.612l.736-.7L137.857-5.7l-.593.676a18.216,18.216,0,0,1-7.108,4.942,26.231,26.231,0,0,1-9.628,1.663A27.87,27.87,0,0,1,111.086.021a21.365,21.365,0,0,1-7.31-4.361,19.236,19.236,0,0,1-4.7-6.66,21.233,21.233,0,0,1-1.65-8.368,21.612,21.612,0,0,1,1.637-8.393,19.679,19.679,0,0,1,4.557-6.648,20.6,20.6,0,0,1,6.9-4.35A23.953,23.953,0,0,1,119.16-40.312Zm19,19.763a18,18,0,0,0-5.59-12.88,19.594,19.594,0,0,0-13.407-4.883c-11.436,0-19.736,7.967-19.736,18.944a19.248,19.248,0,0,0,1.491,7.585,17.249,17.249,0,0,0,4.217,5.972,19.379,19.379,0,0,0,6.631,3.95,25.881,25.881,0,0,0,8.766,1.437c6.277,0,11.191-1.771,14.622-5.266l-4.682-5.077a14.064,14.064,0,0,1-9.652,3.343A14.111,14.111,0,0,1,113.914-9a9.8,9.8,0,0,1-4.311-4.787l-.5-1.143Zm44.075-19.763a38.948,38.948,0,0,1,8.289.906,24.98,24.98,0,0,1,7.122,2.616l.785.462-4.588,9.795-.94-.532a21.091,21.091,0,0,0-10.667-2.75,10.435,10.435,0,0,0-5.006.919,1.918,1.918,0,0,0-1.194,1.681c0,.533.209,1.156,1.755,1.741a31.072,31.072,0,0,0,5.539,1.171c3.451.538,7.363,1.148,10.486,2.844a10.659,10.659,0,0,1,4.031,3.649,11.228,11.228,0,0,1,1.588,6.076A11.276,11.276,0,0,1,198.084-6.3a12.38,12.38,0,0,1-3.877,4.238C190.8.319,185.934,1.576,180.144,1.576A39.961,39.961,0,0,1,170.4.348a25.516,25.516,0,0,1-7.584-3.113L162.1-3.24l4.591-9.888.966.624A25.468,25.468,0,0,0,180.576-8.92a11.272,11.272,0,0,0,5.033-.834,1.79,1.79,0,0,0,1.095-1.694c0-.312,0-.96-1.664-1.563a31.028,31.028,0,0,0-5.387-1.077c-3.488-.51-7.442-1.089-10.621-2.794a10.739,10.739,0,0,1-4.107-3.7,11.452,11.452,0,0,1-1.62-6.205A11.746,11.746,0,0,1,164.63-32.3a12.468,12.468,0,0,1,3.814-4.308C171.8-39.033,176.566-40.312,182.232-40.312Zm13.6,4.811a32.279,32.279,0,0,0-13.6-2.811c-5.243,0-9.606,1.148-12.618,3.321a9.816,9.816,0,0,0-4.31,8.207,9.371,9.371,0,0,0,1.312,5.139,8.655,8.655,0,0,0,3.361,3c2.87,1.54,6.64,2.091,9.965,2.578a32.1,32.1,0,0,1,5.778,1.175,5.453,5.453,0,0,1,2.07,1.22,3.062,3.062,0,0,1,.913,2.224,3.772,3.772,0,0,1-2.145,3.454,12.874,12.874,0,0,1-5.983,1.074,28.2,28.2,0,0,1-13.025-3.314l-2.9,6.248a25.77,25.77,0,0,0,6.247,2.4,37.935,37.935,0,0,0,9.248,1.166c5.378,0,9.846-1.133,12.919-3.276a9.526,9.526,0,0,0,4.369-8.036,9.148,9.148,0,0,0-1.281-5.011,8.574,8.574,0,0,0-3.293-2.957c-2.818-1.531-6.548-2.112-9.84-2.625A32.165,32.165,0,0,1,177.08-23.6a5.613,5.613,0,0,1-2.125-1.3,3.243,3.243,0,0,1-.923-2.313,3.9,3.9,0,0,1,2.226-3.431,12.549,12.549,0,0,1,5.974-1.169,23.437,23.437,0,0,1,10.7,2.5Zm162.945-4.811a38.948,38.948,0,0,1,8.289.906,24.979,24.979,0,0,1,7.122,2.616l.785.462-4.588,9.795-.94-.532a21.091,21.091,0,0,0-10.667-2.75,10.435,10.435,0,0,0-5.006.919,1.918,1.918,0,0,0-1.194,1.681c0,.533.209,1.156,1.755,1.741a31.071,31.071,0,0,0,5.539,1.171c3.451.538,7.363,1.148,10.486,2.844a10.659,10.659,0,0,1,4.031,3.649,11.228,11.228,0,0,1,1.588,6.076A11.276,11.276,0,0,1,374.628-6.3a12.379,12.379,0,0,1-3.877,4.238c-3.411,2.378-8.273,3.636-14.063,3.636A39.962,39.962,0,0,1,346.946.348a25.517,25.517,0,0,1-7.584-3.113l-.719-.474,4.591-9.888.966.624A25.468,25.468,0,0,0,357.12-8.92a11.272,11.272,0,0,0,5.033-.834,1.79,1.79,0,0,0,1.095-1.694c0-.312,0-.96-1.664-1.563a31.029,31.029,0,0,0-5.387-1.077c-3.488-.51-7.442-1.089-10.621-2.794a10.739,10.739,0,0,1-4.107-3.7,11.452,11.452,0,0,1-1.62-6.205,11.746,11.746,0,0,1,1.326-5.521,12.468,12.468,0,0,1,3.814-4.308C348.342-39.033,353.11-40.312,358.776-40.312Zm13.6,4.811a32.279,32.279,0,0,0-13.6-2.811c-5.243,0-9.606,1.148-12.618,3.321a9.816,9.816,0,0,0-4.31,8.207,9.371,9.371,0,0,0,1.312,5.139,8.654,8.654,0,0,0,3.361,3c2.87,1.54,6.64,2.091,9.965,2.578a32.1,32.1,0,0,1,5.778,1.175,5.453,5.453,0,0,1,2.07,1.22,3.062,3.062,0,0,1,.913,2.224A3.772,3.772,0,0,1,363.1-7.994,12.874,12.874,0,0,1,357.12-6.92a28.2,28.2,0,0,1-13.025-3.314l-2.9,6.248a25.769,25.769,0,0,0,6.247,2.4,37.934,37.934,0,0,0,9.248,1.166c5.378,0,9.846-1.133,12.919-3.276a9.526,9.526,0,0,0,4.369-8.036,9.148,9.148,0,0,0-1.281-5.011A8.573,8.573,0,0,0,369.4-19.7c-2.818-1.531-6.548-2.112-9.84-2.625a32.166,32.166,0,0,1-5.939-1.276,5.613,5.613,0,0,1-2.124-1.3,3.243,3.243,0,0,1-.923-2.313,3.9,3.9,0,0,1,2.226-3.431,12.548,12.548,0,0,1,5.974-1.169,23.437,23.437,0,0,1,10.7,2.5Zm127.592-4.811A21.583,21.583,0,0,1,514.731-34.9a18.717,18.717,0,0,1,4.554,6.5,22.422,22.422,0,0,1,1.7,8.669l0,.83-28.155,5.447a7.741,7.741,0,0,0,2.858,2.709,12.157,12.157,0,0,0,5.932,1.324,13.6,13.6,0,0,0,5.035-.858,12.331,12.331,0,0,0,4-2.612l.736-.7L518.665-5.7l-.593.676a18.216,18.216,0,0,1-7.108,4.942,26.232,26.232,0,0,1-9.628,1.663A27.87,27.87,0,0,1,491.894.021a21.366,21.366,0,0,1-7.31-4.361,19.236,19.236,0,0,1-4.7-6.66,21.233,21.233,0,0,1-1.65-8.368,21.611,21.611,0,0,1,1.637-8.393,19.678,19.678,0,0,1,4.557-6.648,20.594,20.594,0,0,1,6.9-4.35A23.953,23.953,0,0,1,499.968-40.312Zm19,19.763a18,18,0,0,0-5.59-12.88,19.594,19.594,0,0,0-13.407-4.883c-11.436,0-19.736,7.967-19.736,18.944a19.248,19.248,0,0,0,1.491,7.585,17.25,17.25,0,0,0,4.217,5.972,19.379,19.379,0,0,0,6.631,3.95,25.881,25.881,0,0,0,8.765,1.437c6.277,0,11.191-1.771,14.622-5.266l-4.682-5.077a14.064,14.064,0,0,1-9.652,3.343A14.111,14.111,0,0,1,494.722-9a9.8,9.8,0,0,1-4.311-4.787l-.5-1.143ZM617.76-40.312c5.429,0,9.927,2.017,12.815,5.71a18.685,18.685,0,0,1,13.9-5.71,19.915,19.915,0,0,1,6.7,1.075,14.351,14.351,0,0,1,5.384,3.358,15.108,15.108,0,0,1,3.521,5.71,23.989,23.989,0,0,1,1.236,7.993V1H648.08V-20.448c0-5.4-2.134-8.144-6.344-8.144-4.88,0-7.568,3.25-7.568,9.152V1H620.936V-20.448c0-2.824-.567-4.937-1.686-6.281a5.666,5.666,0,0,0-4.658-1.863c-4.834,0-7.5,3.25-7.5,9.152V1H593.864V-39.736h12.728v3.1a15.314,15.314,0,0,1,3.921-2.325A18.993,18.993,0,0,1,617.76-40.312Zm12.665,9.06-.762-1.183a12.128,12.128,0,0,0-4.969-4.4,15.753,15.753,0,0,0-6.934-1.475,17.008,17.008,0,0,0-6.487,1.2,12.979,12.979,0,0,0-4.926,3.493L604.592-31.6v-6.138h-8.728V-1H605.1V-19.44c0-3.58.889-6.384,2.641-8.336a8.9,8.9,0,0,1,6.855-2.816,7.637,7.637,0,0,1,6.2,2.583c1.426,1.713,2.148,4.257,2.148,7.561V-1h9.232V-19.44c0-3.585.892-6.39,2.652-8.338a9.006,9.006,0,0,1,6.916-2.814,7.622,7.622,0,0,1,6.137,2.578c1.464,1.734,2.207,4.28,2.207,7.566V-1h9.232V-22.176c0-10.405-5.27-16.136-14.84-16.136a16.448,16.448,0,0,0-13.18,5.952Zm-379.5-8.484H264.16v18.784c0,2.942.611,5.134,1.815,6.516a6.266,6.266,0,0,0,5.033,1.916,7.458,7.458,0,0,0,5.673-2.225c1.5-1.624,2.255-4.052,2.255-7.215V-39.736h13.232V-6.48a29.619,29.619,0,0,1-1.448,9.688,17.494,17.494,0,0,1-4.329,6.943,17.893,17.893,0,0,1-7,4.084,30.379,30.379,0,0,1-9.315,1.309c-7.7,0-14.666-2.021-19.124-5.543l-.666-.526,5.457-9.858.928.763a20.43,20.43,0,0,0,12.469,4.092c3.488,0,5.951-.767,7.528-2.344,1.385-1.385,2.126-3.441,2.252-6.265a15.934,15.934,0,0,1-3.777,2.073,18.394,18.394,0,0,1-6.651,1.192,21.474,21.474,0,0,1-7.015-1.086,14.926,14.926,0,0,1-5.608-3.4,15.221,15.221,0,0,1-3.657-5.8,24,24,0,0,1-1.28-8.135Zm11.232,2h-9.232V-19.3c0,10.591,5.526,16.424,15.56,16.424a16.4,16.4,0,0,0,5.931-1.058,13.757,13.757,0,0,0,4.81-3.113l1.707-1.707v3.71c0,3.852-.935,6.659-2.858,8.582-1.972,1.972-4.9,2.93-8.942,2.93a23.068,23.068,0,0,1-12.788-3.826l-3.483,6.292c4.13,2.935,10.339,4.606,17.207,4.606,6.584,0,11.607-1.626,14.93-4.832C288.43,5.4,290.168.293,290.168-6.48V-37.736h-9.232V-21.96c0,3.682-.937,6.565-2.785,8.571a9.4,9.4,0,0,1-7.143,2.869c-4.036,0-8.848-1.81-8.848-10.432Zm58.824-2h13.232V1H320.984Zm11.232,2h-9.232V-1h9.232Zm239.976-2h13.232V1H572.192Zm11.232,2h-9.232V-1h9.232Zm85.968-2h13.232V1H669.392Zm11.232,2h-9.232V-1h9.232ZM119.16-31.816a10.83,10.83,0,0,1,6.518,2.024,9.744,9.744,0,0,1,3.591,5.337l.283,1.039L108.4-19.3l.041-1.254a12.189,12.189,0,0,1,3.116-8.268A10.287,10.287,0,0,1,119.16-31.816Zm7.829,6.861a7.626,7.626,0,0,0-2.5-3.231,8.85,8.85,0,0,0-5.326-1.63c-4.876,0-8.032,2.988-8.627,8.065Zm372.979-6.861a10.83,10.83,0,0,1,6.518,2.024,9.744,9.744,0,0,1,3.591,5.337l.283,1.039L489.207-19.3l.041-1.254a12.189,12.189,0,0,1,3.116-8.268A10.287,10.287,0,0,1,499.968-31.816Zm7.829,6.861a7.626,7.626,0,0,0-2.5-3.231,8.85,8.85,0,0,0-5.326-1.63c-4.876,0-8.032,2.988-8.627,8.065Z" transform="translate(158 354)" fill="#fff"/>
    <path id="Icon_awesome-rocket" data-name="Icon awesome-rocket" d="M28.428-1a26.082,26.082,0,0,1,5.924.5,2.1,2.1,0,0,1,1.613,1.613,25.7,25.7,0,0,1,.5,5.936,16.2,16.2,0,0,1-2.718,9.33,21.41,21.41,0,0,1-6.15,5.832V28.9a4.294,4.294,0,0,1-2.389,3.867L18.369,36.19a2.663,2.663,0,0,1-2.591-.119,2.646,2.646,0,0,1-1.261-2.264V29.018a3.217,3.217,0,0,1-4.4-.141L6.593,25.35a3.221,3.221,0,0,1-.141-4.4H1.668A2.663,2.663,0,0,1-.716,17.1l3.424-6.846A4.3,4.3,0,0,1,6.571,7.867h6.675a21.259,21.259,0,0,1,5.825-6.155A16.258,16.258,0,0,1,28.428-1ZM17.181,34.47a.657.657,0,0,0,.3-.069l6.836-3.421A2.306,2.306,0,0,0,25.6,28.9V21.121l.462-.295c5.813-3.708,8.405-7.958,8.405-13.781a23.709,23.709,0,0,0-.452-5.511.1.1,0,0,0-.078-.078A24.1,24.1,0,0,0,28.428,1C22.577,1,18.323,3.592,14.635,9.4l-.295.464H6.572A2.313,2.313,0,0,0,4.5,11.151L1.073,17.994a.663.663,0,0,0,.594.957h9.6L8.007,22.215a1.218,1.218,0,0,0,0,1.721l3.526,3.527a1.217,1.217,0,0,0,1.721,0L16.518,24.2v9.608a.663.663,0,0,0,.663.663ZM26.6,5.1a3.771,3.771,0,1,1-3.771,3.771A3.775,3.775,0,0,1,26.6,5.1Zm0,5.542a1.771,1.771,0,1,0-1.252-.519,1.773,1.773,0,0,0,1.252.519Z" transform="translate(881.054 316.422) rotate(20)" fill="#fff"/>
  </g>
</svg>
